<svg xmlns="http://www.w3.org/2000/svg" width="76" height="75" viewBox="0 0 76 75">
  <g id="Group_1874" data-name="Group 1874" transform="translate(-7208 -7410)">
    <rect id="Rectangle_1520" data-name="Rectangle 1520" width="76" height="75" transform="translate(7208 7410)" fill="#e90052"/>
    <path id="Path_997" data-name="Path 997" d="M15.074,45.476c-.236-.622-.486-1.239-.707-1.866-.661-1.88-1.3-3.771-1.971-5.648-.414-1.156-.752-1.331-1.655-.954-1.346.557-1.551,1.015-1.03,2.186q1.772,3.979,3.52,7.971c.108.246.189.5.376,1.009a7.312,7.312,0,0,1-.969-.388C4.461,42.7.356,35.266.007,25.72A27.417,27.417,0,0,1,.441,21.3,2.386,2.386,0,0,1,.9,20.312a11.4,11.4,0,0,1,7.449-4.729,35.349,35.349,0,0,1,14.261.292c2.107.44,4.187,1.007,6.418,1.549a9.039,9.039,0,0,0-3.386-1.947,38.264,38.264,0,0,0-18.334-2.07,22.5,22.5,0,0,0-3.379.889,6.1,6.1,0,0,1-1.168.314,3.453,3.453,0,0,1,1.5-2.423A21.139,21.139,0,0,1,15.38,9.7,37.46,37.46,0,0,1,29.047,13.17c1.38.6,2.708,1.327,4.062,1.993a.648.648,0,0,0,.487.068c-3.4-3.484-7.76-5.19-12.307-6.487s-9.146-2.118-13.91-.788c1.113-1.34,2.173-2.64,3.965-3.012a22.679,22.679,0,0,1,11.809.744,43.086,43.086,0,0,1,13.63,7.665,2.277,2.277,0,0,0,1.045.521,4.685,4.685,0,0,0-.392-.71A26.224,26.224,0,0,0,30.3,7.11,38.575,38.575,0,0,0,19.37,2.371a19.1,19.1,0,0,1-2.552-.633,9.382,9.382,0,0,1,1.153-.55A25.667,25.667,0,0,1,37.486,48.46,24.6,24.6,0,0,1,20.977,50.9c-.923-.183-1.033-.318-.722-1.2,1.5-4.242,3.029-8.475,4.541-12.715q1.593-4.466,3.17-8.938a1.354,1.354,0,0,0-.742-1.777c-.051-.025-.107-.04-.159-.062-2.728-1.157-3.026-1.007-3.808,1.864q-2.234,8.2-4.477,16.406c-.145.531-.272,1.067-.407,1.6l-.3,0a11.863,11.863,0,0,1-.137-1.264q-.031-7.183-.042-14.365c0-.714.106-1.652-.725-1.815a5.219,5.219,0,0,0-2.541.307c-.28.094-.5.879-.464,1.327.332,4.376.731,8.747,1.09,13.121.056.681.008,1.372.008,2.058ZM8.6,34.682c.3,0,.684.117.863-.025a8.755,8.755,0,0,0,.911-1.083c.225-.252.747-.538.7-.681-.241-.814.4-1.159.723-1.685a.621.621,0,0,0-.032-.592.6.6,0,0,0-.589.011,3.931,3.931,0,0,1-1.518.943,2.566,2.566,0,0,0-1.62,1.74c-.05.828-.623,1.109-.868,1.672-.074.171.017.413.032.623.23-.029.521.018.677-.1a5.354,5.354,0,0,0,.716-.817Zm13.97-12.175a.913.913,0,0,0-.094-.289c-.179-.247-.38-.478-.572-.715-.231.255-.555.474-.672.773a3.057,3.057,0,0,0-.083,1.094c0,.532-.1,1.232.593,1.312.308.036.682-.5,1.193-.913a9.382,9.382,0,0,0,1.477-.026c.237-.033.434-.358.648-.55-.211-.229-.395-.613-.636-.655a11.437,11.437,0,0,0-1.853-.032Zm-3.149.611a2.165,2.165,0,0,0-.041-.644,7.9,7.9,0,0,0-.478-.936,8.044,8.044,0,0,1-.754.647,1.9,1.9,0,0,1-.743.323c-.441.066-.91-.011-1.334.1a.827.827,0,0,0-.453.61c-.017.151.282.453.475.487.435.078.9,0,1.34.048a1.345,1.345,0,0,1,.665.283,8.019,8.019,0,0,1,.742.769c.184-.353.392-.7.542-1.065A2.061,2.061,0,0,0,19.419,23.117Zm1.54.056h-.04a2.912,2.912,0,0,0-.017-.847,3.924,3.924,0,0,0-.484-.81c-.26.227-.7.425-.743.686a7.193,7.193,0,0,0,0,2.026.859.859,0,0,0,.631.55c.184.01.475-.343.564-.59A3.769,3.769,0,0,0,20.959,23.173Zm10.477,7.271a4.57,4.57,0,0,0,.156-1.529c-.155-.616-.733-.641-1.311-.5-.844.2-.311.954-.669,1.355ZM7.683,39.315c-.458-.339-.7-.636-1-.694-.168-.033-.413.322-.624.5a3.243,3.243,0,0,0,.772.613C6.979,39.793,7.245,39.544,7.683,39.315Zm5.926-14.2a4.61,4.61,0,0,0-.525.756,2.95,2.95,0,0,0,.839.626c.051.025.446-.395.406-.48A4.994,4.994,0,0,0,13.609,25.118Z" transform="translate(7220.078 7422.105)" fill="#fff"/>
  </g>
</svg>
