<svg id="cricket-bat_1_" data-name="cricket-bat (1)" xmlns="http://www.w3.org/2000/svg" width="20.135" height="20.135" viewBox="0 0 20.135 20.135">
  <path id="Path_705" data-name="Path 705" d="M356.758,51.3l.688-.688.991.991-.688.688Zm0,0" transform="translate(-340.577 -48.335)"/>
  <path id="Path_706" data-name="Path 706" d="M381.832,26.227l.688-.688.991.991-.688.688Zm0,0" transform="translate(-364.514 -24.402)"/>
  <path id="Path_707" data-name="Path 707" d="M406.9,1.157l.688-.688.991.991-.688.688Zm0,0" transform="translate(-388.447 -0.469)"/>
  <path id="Path_708" data-name="Path 708" d="M244.479,135.763l-.911-.911-2.181,3.092Zm0,0" transform="translate(-230.439 -128.757)"/>
  <path id="Path_709" data-name="Path 709" d="M331.688,76.372l.688-.688.991.991-.688.688Zm0,0" transform="translate(-316.644 -72.272)"/>
  <path id="Path_710" data-name="Path 710" d="M1.817,123.73a1.292,1.292,0,0,0,1.825,0l11.574-11.574-.722-.722-4.683,3.3a.318.318,0,0,1-.442-.443l3.3-4.683-.722-.722L.377,120.464a1.292,1.292,0,0,0,0,1.825Zm0,0" transform="translate(0 -103.972)"/>
  <path id="Path_711" data-name="Path 711" d="M306.617,101.446l.688-.688.991.991-.688.688Zm0,0" transform="translate(-292.71 -96.209)"/>
</svg>
