<svg id="cricket-ball_1_" data-name="cricket-ball (1)" xmlns="http://www.w3.org/2000/svg" width="20.135" height="20.135" viewBox="0 0 20.135 20.135">
  <path id="Path_703" data-name="Path 703" d="M16.921,2.718A10.067,10.067,0,0,0,2.694,16.945ZM5.133,13.661l-.607.608A.369.369,0,0,1,4,13.746l.608-.607a.369.369,0,1,1,.522.522Zm1.519-1.519-.607.607a.369.369,0,0,1-.522-.522l.607-.608a.369.369,0,1,1,.522.522ZM8.17,10.624l-.607.608a.369.369,0,0,1-.522-.522l.608-.607a.369.369,0,0,1,.522.522ZM9.688,9.105l-.608.607a.369.369,0,0,1-.522-.522l.608-.607a.369.369,0,1,1,.522.522Zm1.519-1.519-.607.608a.369.369,0,0,1-.522-.522l.608-.607a.369.369,0,1,1,.522.522Zm1.519-1.519-.608.608a.369.369,0,0,1-.522-.522l.607-.608a.369.369,0,0,1,.522.522Zm1.519-1.519-.608.607a.369.369,0,1,1-.522-.522l.607-.608a.369.369,0,1,1,.522.522Zm1.485-2.006a.369.369,0,0,1,0,.522l-.607.607A.369.369,0,1,1,14.6,3.15l.608-.607A.369.369,0,0,1,15.729,2.543Zm-2.04-.3.607-.607a.369.369,0,0,1,.522.522l-.607.608a.369.369,0,0,1-.522-.522ZM12.2,3.724l.607-.608a.369.369,0,0,1,.522.522l-.607.607a.369.369,0,1,1-.522-.522ZM10.685,5.243l.608-.608a.369.369,0,0,1,.522.522l-.608.607a.369.369,0,0,1-.522-.522ZM9.167,6.761l.607-.608a.369.369,0,1,1,.522.522l-.607.607a.369.369,0,0,1-.522-.522ZM7.648,8.28l.608-.608a.369.369,0,1,1,.522.522L8.17,8.8a.369.369,0,0,1-.522-.522ZM6.129,9.8l.607-.607a.369.369,0,0,1,.522.522l-.608.607A.369.369,0,0,1,6.129,9.8ZM4.611,11.317l.607-.607a.369.369,0,1,1,.522.522l-.608.607a.369.369,0,0,1-.522-.522ZM3.092,12.835l.607-.607a.369.369,0,0,1,.522.522l-.607.608a.369.369,0,1,1-.522-.522ZM1.869,14.95a.369.369,0,0,1-.261-.63l.608-.608a.369.369,0,0,1,.522.522l-.608.607a.368.368,0,0,1-.261.108Zm.65.281.607-.607a.369.369,0,0,1,.522.522l-.608.608a.369.369,0,0,1-.522-.522Zm0,0" transform="translate(-0.001 -0.025)"/>
  <path id="Path_704" data-name="Path 704" d="M61,75.251A10.067,10.067,0,0,0,75.231,61.023ZM72.793,64.308,73.4,63.7a.369.369,0,0,1,.522.522l-.608.607a.369.369,0,0,1-.522-.522Zm-1.519,1.519.608-.607a.369.369,0,1,1,.522.522l-.607.607a.369.369,0,0,1-.522-.522Zm-1.519,1.519.608-.608a.369.369,0,0,1,.522.522l-.607.607a.369.369,0,0,1-.522-.522Zm-1.518,1.519.607-.607a.369.369,0,0,1,.522.522l-.608.608a.369.369,0,0,1-.522-.522Zm-1.519,1.519.608-.608a.369.369,0,0,1,.522.522l-.607.607a.369.369,0,0,1-.522-.522ZM65.2,71.9l.608-.607a.369.369,0,1,1,.522.522l-.608.608A.369.369,0,0,1,65.2,71.9ZM63.681,73.42l.607-.607a.369.369,0,1,1,.522.522l-.607.608a.369.369,0,0,1-.522-.522Zm-1.224,2.114a.369.369,0,0,1-.261-.63L62.8,74.3a.369.369,0,0,1,.522.522l-.608.608a.368.368,0,0,1-.261.108Zm1.779.2-.607.608a.369.369,0,0,1-.522-.522l.608-.608a.369.369,0,1,1,.522.522Zm1.485-1.485-.607.607a.369.369,0,0,1-.522-.522l.608-.608a.369.369,0,0,1,.522.522Zm1.519-1.519-.608.608a.369.369,0,0,1-.522-.522l.607-.607a.369.369,0,0,1,.522.522Zm1.519-1.519-.607.608a.369.369,0,0,1-.522-.522l.608-.607a.369.369,0,0,1,.522.522Zm1.519-1.519-.608.608a.369.369,0,0,1-.522-.522l.608-.608a.369.369,0,1,1,.522.522ZM71.8,68.171l-.608.608a.369.369,0,0,1-.522-.522l.608-.607a.369.369,0,0,1,.522.522Zm1.519-1.519-.608.608a.369.369,0,0,1-.522-.522l.607-.607a.369.369,0,0,1,.522.522Zm1.519-1.519-.607.607a.369.369,0,0,1-.522-.522l.608-.608a.369.369,0,0,1,.522.522Zm1.485-2.006a.369.369,0,0,1,0,.522l-.607.607a.369.369,0,0,1-.522-.522l.607-.607A.369.369,0,0,1,76.317,63.127Zm-.911-.39-.608.608a.369.369,0,1,1-.522-.522l.607-.607a.369.369,0,0,1,.522.522Zm0,0" transform="translate(-57.789 -57.809)"/>
</svg>
